<svg xmlns="http://www.w3.org/2000/svg" xmlns:xlink="http://www.w3.org/1999/xlink" id="Capa_1" x="0" y="0" version="1.1" viewBox="0 0 512 512" xml:space="preserve" style="enable-background:new 0 0 512 512"><path style="fill:#ffc433" d="M416.307,160.307c0-88.258-71.323-159.858-159.476-160.304	C168.236-0.447,95.692,71.713,95.693,160.308c0,51.765,24.541,97.793,62.618,127.1c12.025,9.255,18.868,23.732,18.868,38.905v49.321	h157.639v-49.73c0-15.125,7.043-29.37,19.018-38.61C391.83,257.98,416.307,212.005,416.307,160.307z"/><polygon style="fill:#f9c5b5" points="299.057 159.38 258.423 93.204 217.789 159.38 217.789 185.559 299.057 185.559"/><polygon style="fill:#342e30" points="258.423 93.204 232.959 134.673 283.887 134.673"/><polygon style="fill:#fff3dc" points="217.789 341.322 217.789 159.38 258.423 178.039 299.057 159.38 299.057 341.322"/><g style="opacity:.1"><polygon points="299.057 159.38 258.423 178.039 258.423 178.039 258.423 341.322 299.057 341.322"/></g><g><rect style="fill:#aeaeae" width="157.636" height="32.073" x="177.176" y="400.378"/><path style="fill:#aeaeae" d="M284.827,512h-57.656c-27.61,0-49.992-22.382-49.992-49.992v-4.806h157.639v4.806 C334.819,489.618,312.437,512,284.827,512z"/></g><path style="opacity:.1;enable-background:new" d="M305.991,457.202v4.806c0,27.61-22.382,49.991-49.992,49.991h29.204	c27.61,0,49.992-22.382,49.992-49.991v-4.806H305.991z"/><rect style="fill:#342e30" width="157.636" height="37.359" x="177.176" y="339.114"/><path style="opacity:.1;enable-background:new" d="M256.829,0.002c-5.595-0.028-11.124,0.234-16.576,0.771	c81.151,7.904,144.579,76.306,144.579,159.533c0,51.699-24.476,97.674-62.469,126.987c-11.976,9.239-19.018,23.484-19.018,38.61	v49.73h31.473v-49.73c0-15.126,7.043-29.37,19.018-38.61c37.994-29.313,62.469-75.288,62.469-126.987	C416.307,72.049,344.982,0.449,256.829,0.002z"/><rect style="opacity:.1;enable-background:new" width="32.073" height="32.073" x="302.75" y="400.378"/></svg>